<?xml version="1.0" encoding="utf-8"?>
<!-- Generator: Adobe Illustrator 24.0.1, SVG Export Plug-In . SVG Version: 6.00 Build 0)  -->
<svg version="1.1" id="Capa_1" xmlns="http://www.w3.org/2000/svg" xmlns:xlink="http://www.w3.org/1999/xlink" x="0px" y="0px"
	 viewBox="0 0 600 365.64" style="enable-background:new 0 0 600 365.64;" xml:space="preserve">
<style type="text/css">
	.st0{fill:#294C81;}
	.st1{fill:#C82429;}
</style>
<g>
	<g>
		<g>
			<path class="st0" d="M67.28,305.71c-13.47,0-23.7-2.87-32.43-11.72l11.23-11.23c5.61,5.61,13.22,7.48,21.45,7.48
				c10.23,0,15.72-3.87,15.72-10.98c0-3.12-0.87-5.74-2.74-7.48c-1.75-1.62-3.74-2.49-7.86-3.12l-10.73-1.5
				c-7.61-1.12-13.22-3.49-17.21-7.36c-4.24-4.24-6.36-9.98-6.36-17.46c0-15.84,11.72-26.94,30.93-26.94
				c12.22,0,21.08,2.99,28.69,10.35l-10.98,10.85c-5.61-5.36-12.35-6.11-18.21-6.11c-9.23,0-13.72,5.11-13.72,11.23
				c0,2.25,0.75,4.61,2.62,6.36c1.75,1.62,4.61,2.99,8.23,3.49l10.48,1.5c8.11,1.12,13.22,3.37,16.96,6.86
				c4.74,4.49,6.86,10.98,6.86,18.83C100.21,295.99,85.87,305.71,67.28,305.71z"/>
			<path class="st0" d="M163.94,304.97V267.8h-30.06v37.17h-17.34v-88.81h17.34v36.3h30.06v-36.3h17.34v88.81H163.94z"/>
			<path class="st0" d="M255.74,295.99c-6.24,6.24-13.84,9.73-23.95,9.73c-10.1,0-17.84-3.49-24.07-9.73
				c-8.98-8.98-8.73-20.08-8.73-35.42s-0.25-26.44,8.73-35.42c6.24-6.24,13.97-9.73,24.07-9.73c10.1,0,17.71,3.49,23.95,9.73
				c8.98,8.98,8.86,20.08,8.86,35.42S264.72,287.01,255.74,295.99z M242.9,235.62c-2.49-2.87-6.36-4.74-11.1-4.74
				c-4.74,0-8.73,1.87-11.23,4.74c-3.37,3.74-4.24,7.86-4.24,24.95s0.87,21.2,4.24,24.95c2.49,2.87,6.49,4.74,11.23,4.74
				c4.74,0,8.61-1.87,11.1-4.74c3.37-3.74,4.37-7.86,4.37-24.95S246.26,239.36,242.9,235.62z"/>
			<path class="st0" d="M316.73,271.54h-17.09v33.43h-17.34v-88.81h34.42c18.33,0,29.31,12.6,29.31,27.69
				S335.07,271.54,316.73,271.54z M315.86,231.63h-16.21v24.32h16.21c7.86,0,12.85-4.86,12.85-12.1S323.72,231.63,315.86,231.63z"/>
			<path class="st1" d="M406.03,292.37v12.6h-15.59v-12.6h-36.3v-15.34l30.43-60.87h17.71l-30.43,60.87h18.58v-16.59h15.59v16.59
				h8.11v15.34H406.03z"/>
			<path class="st1" d="M459.67,305.71c-18.21,0-32.68-12.35-32.68-31.18v-58.37h17.34v57.75c0,10.23,5.99,16.34,15.34,16.34
				c9.35,0,15.47-6.11,15.47-16.34v-57.75h17.21v58.37C492.34,293.37,477.88,305.71,459.67,305.71z"/>
			<path class="st1" d="M536.12,305.71c-13.47,0-23.7-2.87-32.43-11.72l11.23-11.23c5.61,5.61,13.22,7.48,21.45,7.48
				c10.23,0,15.72-3.87,15.72-10.98c0-3.12-0.87-5.74-2.74-7.48c-1.75-1.62-3.74-2.49-7.86-3.12l-10.73-1.5
				c-7.61-1.12-13.22-3.49-17.21-7.36c-4.24-4.24-6.36-9.98-6.36-17.46c0-15.84,11.72-26.94,30.93-26.94
				c12.22,0,21.08,2.99,28.69,10.35l-10.98,10.85c-5.61-5.36-12.35-6.11-18.21-6.11c-9.23,0-13.72,5.11-13.72,11.23
				c0,2.25,0.75,4.61,2.62,6.36c1.75,1.62,4.61,2.99,8.23,3.49l10.48,1.5c8.11,1.12,13.22,3.37,16.96,6.86
				c4.74,4.49,6.86,10.98,6.86,18.83C569.05,295.99,554.71,305.71,536.12,305.71z"/>
		</g>
		<g>
			<path class="st0" d="M376.25,101.55c0,34.12-25.17,62.48-57.92,67.48c0.28-1.51,0.35-3.08,0.17-4.67c0,0-0.2-1.67-0.45-3.86
				c11.63-1.98,22.13-7.32,30.45-14.99c-0.5-0.42-1-0.95-1.49-1.67c-2.21-3.22,0.68-6.42,0.68-9.24c0-2.77-5.58-2.54-5.78-4.37
				c-0.7-6.34,3.89-6.43,6.34-8.88s-2.42-8.02-5.57-7.66c-3.17,0.34-12.09-1.46-11.28-8.29c0.99-8.31-10.59-7.58-12.25-11.46
				c-2.42-5.66,1.6-12.59,6.85-14.17c7.43-2.23,14.74-8.29,14.17-15.04c-0.65-7.64-4.11-14.53-9.8-18.62
				c-5.93-2.4-12.32-3.89-19-4.26c-5.97,0.24-11.21,1.56-10.97,4.29c0.59,6.69,19.62,8.43,16.43,14.69
				c-1.67,3.26-14.17,7.87-11.83,12.72c1.52,3.16,5.26,0.45,3.86,6.51c-0.64,2.79-3.09,8.03-6.85,8.37
				c-3.85,0.36-7.05-9.83-17.52-10.16c-4.95-0.16-11.92,7.72-6,13.31c3.59,3.39,10.31-4.07,12.3,1.75c1.4,4.1-0.19,12.72,6.34,16.33
				c2.38,1.31,6.03,2.46,9.64,4.29c-5.36,1.09-11.94,3.14-19.71,6.13l-6.55-1.73c2.74-2.28,7.2-3.89,6.08-8.88
				c-1.65-7.33-14.37-4.56-23.14-13.33c-2.69-2.69-8.43-11.62-8.41-22.36c-4.37,8.3-6.86,17.75-6.86,27.77
				c0,3.08,0.24,6.11,0.69,9.07c-0.1,0-0.21-0.02-0.31-0.02c-2.76,0-5.47,0.58-7.98,1.68c-0.55-3.5-0.85-7.08-0.85-10.73
				c0-37.64,30.62-68.27,68.26-68.27C345.62,33.28,376.25,63.91,376.25,101.55z M325.04,121.45l-16.67,7.66l0.26-3.63l10.8-4.88
				c-1.54-0.11-3.14-0.15-4.73-0.15c-5.97,0-16.05,3.02-27.2,7.45l-35.76-9.43c-3.34-0.88-6.9-0.34-9.83,1.5l-1.76,1.1
				c-1.72,1.08-1.73,3.57-0.03,4.68l21.5,13.95c-5.14,2.63-10.01,5.29-14.3,7.84l-11.03-5.84c-1.8-0.95-3.93-1.07-5.82-0.31
				l-1.04,0.42c-1.56,0.62-2.21,2.48-1.39,3.94l6.08,10.8l0,0c-2.29,1.97-3.6,3.61-3.6,4.74c0,3.39,4.17,4.24,7.85,4.24
				c6.56,0,93.13-19.82,93.13-37.78C331.47,124.18,329.04,122.4,325.04,121.45z M288.54,156.51l19.05-6.71
				c0.84-0.3,1.74,0.26,1.84,1.15l1.67,14.28c0.42,3.57-1.5,7-4.76,8.52l-1.79,0.83c-1.12,0.52-2.44,0.24-3.25-0.68l-13.34-15.15
				C287.31,157.99,287.61,156.83,288.54,156.51z"/>
		</g>
	</g>
</g>
</svg>
